# xmcd
# 
# Track frame offsets:
#     150
#     13695
#     27937
#     41592
#     56690
#     73715
#     86940
#     102632
#     113120
#     131832
#     145957
#     163867
#     179592
# 
# Disc length: 2640
# 
# Revision: 9
# Processed by: cddbd v1.5.2PL0 Copyright (c) Steve Scherf et al.
# Submitted via: fre:ac v1.0.27
# 
DISCID=c40a4e0d
DTITLE=Keb' Mo' - Keb' Mo'
DYEAR=1994
DGENRE=Blues
TTITLE0=Every Morning
TTITLE1=Tell Everybody I Know
TTITLE2=Love Blues
TTITLE3=Victims of Comfort
TTITLE4=Angelina
TTITLE5=Anybody Seen My Girl
TTITLE6=She Just Wants to Dance
TTITLE7=Am I Wrong
TTITLE8=Come on in My Kitchen
TTITLE9=Dirty, Low Down and Bad
TTITLE10=Don't Try to Explain
TTITLE11=Kindhearted Woman Blues
TTITLE12=City Boy
EXTD=
EXTT0=
EXTT1=
EXTT2=
EXTT3=
EXTT4=
EXTT5=
EXTT6=
EXTT7=
EXTT8=
EXTT9=
EXTT10=
EXTT11=
EXTT12=
PLAYORDER=
